<svg aria-hidden="true" style="position: absolute; width: 0; height: 0; overflow: hidden;" version="1.1" xmlns="http://www.w3.org/2000/svg" xmlns:xlink="http://www.w3.org/1999/xlink">
<defs>

<symbol id="face-smile" viewBox="0 0 512 512">
<path d="M464 256A208 208 0 1 0 48 256a208 208 0 1 0 416 0zM0 256a256 256 0 1 1 512 0A256 256 0 1 1 0 256zm177.6 62.1C192.8 334.5 218.8 352 256 352s63.2-17.5 78.4-33.9c9-9.7 24.2-10.4 33.9-1.4s10.4 24.2 1.4 33.9c-22 23.8-60 49.4-113.6 49.4s-91.7-25.5-113.6-49.4c-9-9.7-8.4-24.9 1.4-33.9s24.9-8.4 33.9 1.4zM144.4 208a32 32 0 1 1 64 0 32 32 0 1 1 -64 0zm192-32a32 32 0 1 1 0 64 32 32 0 1 1 0-64z"/>
</symbol>

<symbol id="icon-bookmark" viewBox="0 0 512 512">
<path d="M0 48C0 21.5 21.5 0 48 0l0 48V441.4l130.1-92.9c8.3-6 19.6-6 27.9 0L336 441.4V48H48V0H336c26.5 0 48 21.5 48 48V488c0 9-5 17.2-13 21.3s-17.6 3.4-24.9-1.8L192 397.5 37.9 507.5c-7.3 5.2-16.9 5.9-24.9 1.8S0 497 0 488V48z"/>
</symbol>

<symbol id="icon-add-lyrics" viewBox="0 0 512 512">
<path d="M256 80c0-17.7-14.3-32-32-32s-32 14.3-32 32V224H48c-17.7 0-32 14.3-32 32s14.3 32 32 32H192V432c0 17.7 14.3 32 32 32s32-14.3 32-32V288H400c17.7 0 32-14.3 32-32s-14.3-32-32-32H256V80z"/>
</symbol>

<symbol id="icon-search" viewBox="0 0 512 512">
<path d="M416 208c0 45.9-14.9 88.3-40 122.7L502.6 457.4c12.5 12.5 12.5 32.8 0 45.3s-32.8 12.5-45.3 0L330.7 376c-34.4 25.2-76.8 40-122.7 40C93.1 416 0 322.9 0 208S93.1 0 208 0S416 93.1 416 208zM208 352a144 144 0 1 0 0-288 144 144 0 1 0 0 288z"/>
</symbol>

<symbol id="caret-right" viewBox="0 0 256 512">
<path d="M246.6 278.6c12.5-12.5 12.5-32.8 0-45.3l-128-128c-9.2-9.2-22.9-11.9-34.9-6.9s-19.8 16.6-19.8 29.6l0 256c0 12.9 7.8 24.6 19.8 29.6s25.7 2.2 34.9-6.9l128-128z"/>
</symbol>

<symbol id="caret-left" viewBox="0 0 256 512">
<path d="M9.4 278.6c-12.5-12.5-12.5-32.8 0-45.3l128-128c9.2-9.2 22.9-11.9 34.9-6.9s19.8 16.6 19.8 29.6l0 256c0 12.9-7.8 24.6-19.8 29.6s-25.7 2.2-34.9-6.9l-128-128z"/>
</symbol>

<symbol id="triangle-exclamation" viewBox="0 0 512 512">
<path d="M256 32c14.2 0 27.3 7.5 34.5 19.8l216 368c7.3 12.4 7.3 27.7 .2 40.1S486.3 480 472 480H40c-14.3 0-27.6-7.7-34.7-20.1s-7-27.8 .2-40.1l216-368C228.7 39.5 241.8 32 256 32zm0 128c-13.3 0-24 10.7-24 24V296c0 13.3 10.7 24 24 24s24-10.7 24-24V184c0-13.3-10.7-24-24-24zm32 224a32 32 0 1 0 -64 0 32 32 0 1 0 64 0z"/>
</symbol>

<symbol id="icon-alert-triangle" viewBox="0 0 24 24">
<path d="M11.148 4.374c0.073-0.123 0.185-0.242 0.334-0.332 0.236-0.143 0.506-0.178 0.756-0.116s0.474 0.216 0.614 0.448l8.466 14.133c0.070 0.12 0.119 0.268 0.128 0.434-0.015 0.368-0.119 0.591-0.283 0.759-0.18 0.184-0.427 0.298-0.693 0.301l-16.937-0.001c-0.152-0.001-0.321-0.041-0.481-0.134-0.239-0.138-0.399-0.359-0.466-0.607s-0.038-0.519 0.092-0.745zM9.432 3.346l-8.47 14.14c-0.422 0.731-0.506 1.55-0.308 2.29s0.68 1.408 1.398 1.822c0.464 0.268 0.976 0.4 1.475 0.402h16.943c0.839-0.009 1.587-0.354 2.123-0.902s0.864-1.303 0.855-2.131c-0.006-0.536-0.153-1.044-0.406-1.474l-8.474-14.147c-0.432-0.713-1.11-1.181-1.854-1.363s-1.561-0.081-2.269 0.349c-0.429 0.26-0.775 0.615-1.012 1.014zM11 9v4c0 0.552 0.448 1 1 1s1-0.448 1-1v-4c0-0.552-0.448-1-1-1s-1 0.448-1 1zM12 18c0.552 0 1-0.448 1-1s-0.448-1-1-1-1 0.448-1 1 0.448 1 1 1z"></path>
</symbol>

</defs>
</svg>